<svg xmlns="http://www.w3.org/2000/svg" viewBox="0 0 116 100" style="border: 1px solid black;">
	<g fill="none" stroke="black" stroke-width=".25">
		<line x1="58" x2="58" y1="0" y2="100"/>
		<line x1="0" x2="116" y1="50" y2="50"/>
	</g>
	<g fill="none">
		<path id="m1" d="M4,100 4,0 24,0 58,77 92,0 112,0 112,100 92,100 92,36 78,68 64,100 52,100 38,68 24,36 24,100z"/>
		<path id="e1-90" d="M8,87 8,23 33,23 58,23 83,23 108,23 108,85 94,85 94,39 66.5,39 66.5,82 52.5,82 52.5,39 22,39 22,87z"/>
		<path id="m2" d="M12,0 58,0 104,0 104,15 58,15 12,15z M12,39 104,39 104,54 12,54z M12,85 58,85 104,85 104,100 58,100 12,100z"/>
		<path id="e2" d="M19.2,0 58,38.7 96.7,0 108,11.3 58,61.3 8,11.3z M58,50 58,50 58,50 58,50z M8,88.7 58,38.7 108,88.7 96.7,100 58,61.3 19.2,100z"/>
		<path id="e3-90" d="M8,80 8,20 22,20 22,42 94,42 94,20 108,20 108,80 94,80 94,58 22,58 22,80z"/>
		<path id="m3" d="M16,100 16,0 34,0 34,0 84,72 84,0 100,0 100,100 82,100 82,100 32,28 32,100z"/>

		<!-- <path id="m4" d="M18,0 35,0 35,50 Q33,86 58,86 T81,50 M81,50 81,0 98,0 98,50 Q98,100 58,100 T18,50 M18,50 18,0z"/> -->
		<!-- <path id="e4" d="M19,0 19,0 35,0 35,0 58,0 58,0 81,0 81,0 97,0 97,0 97,14 97,14 66,14 66,14 66,100 66,100 62,100 58,100 54,100 50,100 50,100 50,14 50,14 19,14 19,14z"/> -->
		<path id="m4-stroke" fill="none" stroke="none" stroke-width="16" d="M26.5,0 26.5,50 Q26.5,93 58,91 T89.5,50 M89.5,50 89.5,0"/>
		<path id="e4-stroke" fill="none" stroke="none" stroke-width="16" d="M18,8 58,8 Q58,94 58,95 T58,8 M58,8 97,8"/>
	</g>
	<g fill="red" opacity=".5">
	</g>
	<g fill="blue" opacity=".5">
	</g>
	<g fill="green" opacity=".5">
	</g>
</svg>
